HIERARCHY
ROOT hip
{
  OFFSET 0 0 0
  CHANNELS 6 Xposition Yposition Zposition Zrotation Yrotation Xrotation
  JOINT abdomen
  {
    OFFSET 0 20.6881 -0.73152
    CHANNELS 3 Zrotation Xrotation Yrotation
    JOINT chest
    {
      OFFSET 0 11.7043 -0.48768
      CHANNELS 3 Zrotation Xrotation Yrotation
      JOINT neck
      {
        OFFSET 0 22.1894 -2.19456
        CHANNELS 3 Zrotation Xrotation Yrotation
        JOINT head
        {
          OFFSET -0.24384 7.07133 1.2192
          CHANNELS 3 Zrotation Xrotation Yrotation
          JOINT leftEye
          {
            OFFSET 4.14528 8.04674 8.04672
            CHANNELS 3 Zrotation Xrotation Yrotation
            End Site
            {
              OFFSET 1 0 0
            }
          }
          JOINT rightEye
          {
            OFFSET -3.6576 8.04674 8.04672
            CHANNELS 3 Zrotation Xrotation Yrotation
            End Site
            {
              OFFSET 1 0 0
            }
          }
        }
      }
      JOINT rCollar
      {
        OFFSET -2.68224 19.2634 -4.8768
        CHANNELS 3 Zrotation Xrotation Yrotation
        JOINT rShldr
        {
          OFFSET -8.77824 -1.95073 1.46304
          CHANNELS 3 Zrotation Xrotation Yrotation
          JOINT rForeArm
          {
            OFFSET -28.1742 -1.7115 0.48768
            CHANNELS 3 Zrotation Xrotation Yrotation
            JOINT rHand
            {
              OFFSET -22.5879 0.773209 7.07136
              CHANNELS 3 Zrotation Xrotation Yrotation
              JOINT rThumb1
              {
                OFFSET -1.2192 -0.487915 3.41376
                CHANNELS 3 Zrotation Xrotation Yrotation
                JOINT rThumb2
                {
                  OFFSET -3.37035 -0.52449 3.41376
                  CHANNELS 3 Zrotation Xrotation Yrotation
                  End Site
                  {
                    OFFSET -1.78271 -1.18214 1.43049
                  }
                }
              }
              JOINT rIndex1
              {
                OFFSET -7.75947 0.938293 5.60832
                CHANNELS 3 Zrotation Xrotation Yrotation
                JOINT rIndex2
                {
                  OFFSET -2.54057 -0.884171 1.56538
                  CHANNELS 3 Zrotation Xrotation Yrotation
                  End Site
                  {
                    OFFSET -1.62519 -0.234802 1.16502
                  }
                }
              }
              JOINT rMid1
              {
                OFFSET -8.24714 1.18213 3.41376
                CHANNELS 3 Zrotation Xrotation Yrotation
                JOINT rMid2
                {
                  OFFSET -3.10165 -0.590103 1.0647
                  CHANNELS 3 Zrotation Xrotation Yrotation
                  End Site
                  {
                    OFFSET -2.48547 -0.328903 0.83742
                  }
                }
              }
              JOINT rRing1
              {
                OFFSET -8.82822 0.546677 1.51678
                CHANNELS 3 Zrotation Xrotation Yrotation
                JOINT rRing2
                {
                  OFFSET -2.60934 -0.819778 -0.0198488
                  CHANNELS 3 Zrotation Xrotation Yrotation
                  End Site
                  {
                    OFFSET -2.33842 -0.294052 0.168128
                  }
                }
              }
              JOINT rPinky1
              {
                OFFSET -8.27202 -0.0477905 -0.4584
                CHANNELS 3 Zrotation Xrotation Yrotation
                JOINT rPinky2
                {
                  OFFSET -1.82734 -0.647385 -0.700984
                  CHANNELS 3 Zrotation Xrotation Yrotation
                  End Site
                  {
                    OFFSET -1.69225 -0.51767 -0.607171
                  }
                }
              }
            }
          }
        }
      }
      JOINT lCollar
      {
        OFFSET 2.68224 19.2634 -4.8768
        CHANNELS 3 Zrotation Xrotation Yrotation
        JOINT lShldr
        {
          OFFSET 8.77824 -1.95073 1.46304
          CHANNELS 3 Zrotation Xrotation Yrotation
          JOINT lForeArm
          {
            OFFSET 28.1742 -1.7115 0.48768
            CHANNELS 3 Zrotation Xrotation Yrotation
            JOINT lHand
            {
              OFFSET 22.5879 0.773209 7.07136
              CHANNELS 3 Zrotation Xrotation Yrotation
              JOINT lThumb1
              {
                OFFSET 1.2192 -0.487915 3.41376
                CHANNELS 3 Zrotation Xrotation Yrotation
                JOINT lThumb2
                {
                  OFFSET 3.37035 -0.52449 3.41376
                  CHANNELS 3 Zrotation Xrotation Yrotation
                  End Site
                  {
                    OFFSET 1.78271 -1.18214 1.43049
                  }
                }
              }
              JOINT lIndex1
              {
                OFFSET 7.75947 0.938293 5.60832
                CHANNELS 3 Zrotation Xrotation Yrotation
                JOINT lIndex2
                {
                  OFFSET 2.54057 -0.884171 1.56538
                  CHANNELS 3 Zrotation Xrotation Yrotation
                  End Site
                  {
                    OFFSET 1.62519 -0.234802 1.16502
                  }
                }
              }
              JOINT lMid1
              {
                OFFSET 8.24714 1.18213 3.41376
                CHANNELS 3 Zrotation Xrotation Yrotation
                JOINT lMid2
                {
                  OFFSET 3.10165 -0.590103 1.0647
                  CHANNELS 3 Zrotation Xrotation Yrotation
                  End Site
                  {
                    OFFSET 2.48547 -0.328903 0.83742
                  }
                }
              }
              JOINT lRing1
              {
                OFFSET 8.82822 0.546677 1.51678
                CHANNELS 3 Zrotation Xrotation Yrotation
                JOINT lRing2
                {
                  OFFSET 2.60934 -0.819778 -0.0198488
                  CHANNELS 3 Zrotation Xrotation Yrotation
                  End Site
                  {
                    OFFSET 2.33842 -0.294052 0.168128
                  }
                }
              }
              JOINT lPinky1
              {
                OFFSET 8.27202 -0.0477905 -0.4584
                CHANNELS 3 Zrotation Xrotation Yrotation
                JOINT lPinky2
                {
                  OFFSET 1.82734 -0.647385 -0.700984
                  CHANNELS 3 Zrotation Xrotation Yrotation
                  End Site
                  {
                    OFFSET 1.69225 -0.51767 -0.607171
                  }
                }
              }
            }
          }
        }
      }
    }
  }
  JOINT rButtock
  {
    OFFSET -8.77824 4.35084 1.2192
    CHANNELS 3 Zrotation Xrotation Yrotation
    JOINT rThigh
    {
      OFFSET 0 -1.70687 -2.19456
      CHANNELS 3 Zrotation Xrotation Yrotation
      JOINT rShin
      {
        OFFSET 0 -36.8199 0.73152
        CHANNELS 3 Zrotation Xrotation Yrotation
        JOINT rFoot
        {
          OFFSET 0.73152 -45.1104 -5.12064
          CHANNELS 3 Zrotation Xrotation Yrotation
          End Site
          {
            OFFSET -1.1221 -3.69964 12.103
          }
        }
      }
    }
  }
  JOINT lButtock
  {
    OFFSET 8.77824 4.35084 1.2192
    CHANNELS 3 Zrotation Xrotation Yrotation
    JOINT lThigh
    {
      OFFSET 0 -1.70687 -2.19456
      CHANNELS 3 Zrotation Xrotation Yrotation
      JOINT lShin
      {
        OFFSET 0 -36.8199 0.73152
        CHANNELS 3 Zrotation Xrotation Yrotation
        JOINT lFoot
        {
          OFFSET -0.73152 -45.1104 -5.12064
          CHANNELS 3 Zrotation Xrotation Yrotation
          End Site
          {
            OFFSET 1.1221 -3.69964 12.103
          }
        }
      }
    }
  }
}
MOTION
Frames:	9
Frame Time:	0.03333
0.0 0.0 0.0 0.0 0.0 0.0 0.0 0.0 0.0 0.0 0.0 0.0 0.0 0.0 0.0 0.0 0.0 0.0 0.0 0.0 0.0 0.0 0.0 0.0 0.0 0.0 0.0 0.0 0.0 0.0 0.0 0.0 0.0 0.0 0.0 0.0 0.0 0.0 0.0 0.0 0.0 0.0 0.0 0.0 0.0 0.0 0.0 0.0 0.0 0.0 0.0 0.0 0.0 0.0 0.0 0.0 0.0 0.0 0.0 0.0 0.0 0.0 0.0 0.0 0.0 0.0 0.0 0.0 0.0 0.0 0.0 0.0 0.0 0.0 0.0 0.0 0.0 0.0 0.0 0.0 0.0 0.0 0.0 0.0 0.0 0.0 0.0 0.0 0.0 0.0 0.0 0.0 0.0 0.0 0.0 0.0 0.0 0.0 0.0 0.0 0.0 0.0 0.0 0.0 0.0 0.0 0.0 0.0 0.0 0.0 0.0 0.0 0.0 0.0 0.0 0.0 0.0 0.0 0.0 0.0 0.0 0.0 0.0 0.0 0.0 0.0 0.0 0.0 0.0 0.0 0.0 0.0
0.1436 62.3138 -0.06359999999999999 -178.396479 -81.766304 177.601731 -1.828774 -0.232788 100.672214 6.2828 6.564344 -32.595995 -0.858568 -19.896637 0.925144 41.599877 -7.734445 66.527353 172.094549 -1.63989 23.403599 -147.971733 10.574245 35.741438 62.53963 40.497236 17.147648 92.452482 -84.457596 78.346213 -171.292121 75.197509 -32.625416 -125.056002 66.387927 30.565723 1.439264 -11.917394 42.097261 -0.664076 44.007209 171.280251 -37.806486 8.473859 -144.065006 -95.138587 27.677249 -115.480742 -30.258551 -15.160858 -111.081303 -54.026051 55.061537 36.579348 170.459007 24.591523 -87.436781 5.528801 44.980837 -4.87163 -155.30901 26.250722 -74.655998 -147.374267 7.169871 -141.445781 -67.992462 28.069181 -10.913791 -12.484546 -17.682114 -8.298583 177.831935 5.907774 20.076325 5.88394 41.305928 42.616021 16.04488 -6.397267 -13.645241 22.235584 -74.007609 53.044689 -33.657055 -45.468415 -32.52346 52.207722 58.350698 -52.486804 44.534527 -19.387562 33.502192 87.456582 6.204862 -156.907778 82.787418 45.53218 96.507951 150.788485 -38.371125 -162.566948 -117.990689 4.366599 50.480862 133.57521 -7.156272 138.9015 -0.340373 -50.920079 0.01166 0.967627 52.286699 -0.0 2.8741 -5.896984 35.380614 -64.241707 61.548815 75.055493 -0.341159 -50.239423 -0.0 1.117618 52.047851 -0.0 -0.215855 6.113291 172.298914 -75.307572 10.539941 89.412129
0.6604 62.05969999999999 -0.29550000000000004 0.665518 -34.935843 1.762714 -10.404295 18.174314 2.861963 7.528436 -11.00835 -2.232534 5.670036 21.833882 61.991983 -33.653996 -10.440362 -91.871813 -13.103603 0.977242 -8.493358 24.039071 -0.798076 -3.747093 -45.120508 59.621933 47.908836 -94.98024 33.88749 109.994505 -176.931997 9.211621 -106.534799 -7.964461 14.104555 -3.669028 -96.117729 41.385544 54.309085 27.249004 -38.30552 33.057943 16.25989 -71.50285 -31.131755 -175.652664 -47.266017 75.409354 -17.483559 43.729903 10.430086 -18.484275 32.024552 21.023199 -67.815614 -73.683548 -88.805052 -95.391279 -62.964951 -122.157762 157.839916 87.208345 -139.089442 -68.943229 58.013593 108.502815 12.11282 34.794629 -10.377146 139.726911 -24.223884 -122.871984 -179.089094 26.472233 106.920612 4.947672 6.470538 5.161027 172.669087 -7.87198 -98.238245 -9.644403 -55.376871 -11.503905 4.93621 -10.222155 16.059321 -146.021366 -46.328569 -58.02059 169.710666 -36.874631 -144.996718 80.98554 59.752358 -91.16986 88.452933 -68.212253 95.491383 -18.032882 13.217619 -3.69181 150.19988 52.832455 162.260813 -167.75062 50.831194 98.931735 2.127505 2.036477 -2.811583 -43.423445 -52.267101 -37.342837 -44.82369 73.569166 -55.507278 161.099197 2.362251 -88.387318 110.652951 51.827149 46.264517 -105.794313 22.332877 96.134869 61.552511 -30.259557 -107.87216 -31.008648 -30.707775 9.785394
0.7605 60.5163 -0.8123999999999999 -1.660327 -30.297431 2.42227 -5.605091 12.487227 -155.587269 -1.285612 4.911896 153.893349 -11.369402 25.427673 -74.464687 40.34916 0.209998 38.796968 26.529191 -1.676663 -7.103804 3.180099 -0.144459 -5.200521 -143.300536 24.145987 149.764744 -127.872521 55.344059 99.609898 -46.671435 79.17497 138.207838 -4.765616 15.999706 -3.796337 -10.304189 -18.870884 -6.913531 17.954769 10.213943 -1.688997 -14.192266 14.505339 0.831042 89.570857 -54.04133 69.481077 -164.703505 8.096363 128.999553 -7.127985 -4.317274 19.334874 -138.011303 -3.944492 173.530163 -156.61175 -1.92359 170.770712 8.006102 40.02641 30.206725 -107.200527 -3.927143 -110.848588 144.276891 39.609066 -147.531496 -117.952938 -25.25375 -146.281751 -163.994578 -5.040048 -61.226165 176.960088 13.501804 -138.98998 -177.799846 -14.891465 -90.730744 133.682165 8.257272 -70.773646 48.869776 40.269571 -34.009489 -104.975723 -59.790623 -57.641403 -45.666193 -88.994631 -18.268748 -12.831233 39.59786 -18.911915 139.687406 -13.456638 171.790357 -27.337512 -31.526277 14.871834 98.038872 -84.853305 96.524722 150.6699 65.062286 -163.908358 -7.207479 1.404606 9.532277 -44.428539 -46.11277 38.762721 71.478974 12.424351 -125.067456 126.444728 3.956182 -31.200359 -162.057078 71.790302 -0.0 -156.706456 43.961765 -16.301706 -42.345329 60.412145 -31.184378 22.898956 -23.941997 89.100463
-0.0616 59.8244 -0.8841 -2.964179 -29.631727 4.019991 -3.200484 14.351713 -0.0 2.165013 -5.881318 -4.25591 -0.027498 12.130561 -12.348828 -0.401969 -22.2427 -31.087035 47.791955 16.25641 35.734523 -9.850979 -1.174211 13.56215 -151.321971 -4.601276 159.084283 80.285021 -80.077193 107.989246 -17.462316 70.925188 -111.145628 170.254108 -25.348123 138.271737 -83.754118 26.421873 28.420697 -127.211851 -48.527115 69.271424 -49.269179 36.48862 38.166286 -10.074868 1.657021 -14.349532 -0.759035 -54.951333 1.805594 -139.68024 -8.950471 174.603994 4.971132 -10.654868 6.951696 -78.44828 -60.463854 -97.749339 -129.480187 -35.804246 -131.053156 69.795831 69.662411 -47.639382 158.09446 -2.77055 -163.876952 54.718827 -6.701214 12.238983 -174.693259 -28.303365 99.684728 7.857169 11.124528 7.710315 168.036004 -2.544965 -81.080141 157.943023 -9.026003 -82.651362 89.716201 37.957015 -74.618388 65.850678 67.032389 -30.885158 5.069237 -9.072113 -4.327155 3.092637 34.413397 -13.37516 164.345843 -3.66868 -168.292416 168.016033 61.338668 -153.380507 10.949671 -52.818934 17.84127 53.582676 74.23222 -80.011909 -131.080943 67.674643 -51.116475 142.021484 21.652708 15.275638 25.940111 64.62119 48.101816 -125.253973 50.361778 50.292502 23.503611 1.821341 -0.0 19.877043 -31.962614 -180.0 53.911775 -60.937183 -53.859405 95.844083 -72.939002 1.030129
-1.0959 58.417300000000004 -0.7512 -3.232201 -26.727263 4.593968 -4.015809 15.94223 0.0 4.854629 -7.704776 -7.014029 12.244083 20.196014 91.876549 -31.357172 18.560137 -133.71427 12.928583 -1.953493 -17.114389 -44.849974 -5.360133 12.94274 7.698363 -35.907568 -3.372246 -115.298814 -41.36261 -152.432327 -159.39656 30.103794 -90.880826 -3.061761 3.070018 -3.380794 -6.828622 -12.145304 10.212954 7.08528 14.782234 -12.411906 -151.698395 -30.768641 118.183627 -155.236837 -42.224656 114.71823 -151.896324 33.162487 123.785784 -16.391839 0.087183 22.861358 -37.396105 -87.554632 -54.325743 -41.46779 -38.387413 -28.132876 4.782189 -5.347456 8.989574 -14.87515 -43.902375 -22.266564 160.63294 -17.4386 -166.46917 37.949261 26.298074 28.700096 178.854255 11.029614 90.462076 9.208655 5.928277 7.311145 162.533656 8.35576 -79.081322 -163.881255 9.009502 -73.275111 -136.964337 -70.119151 -73.842152 -136.02766 -49.491983 -40.708208 125.105224 45.483223 -108.230065 -17.436131 -15.268303 -4.266395 16.152573 -1.178394 -3.886765 31.498719 -79.65117 76.884881 132.707094 72.692676 176.465571 87.684186 -47.532107 75.061738 95.34286 66.002531 47.937538 -163.002851 26.134017 0.0 27.078929 66.717514 -100.865168 60.604822 43.972796 27.681013 113.169843 55.334629 45.852081 -101.483994 7.333704 -27.430692 -2.206841 78.93332 87.679866 -110.608142 -87.645955 159.023143
-1.7788000000000002 56.700399999999995 -0.6198 -4.243356 -24.588975 4.566276 -0.722414 13.953867 -180.0 -3.534521 6.36172 168.837823 -6.381342 30.255077 -140.440122 27.098451 30.903576 86.772957 6.718059 -1.974754 -32.728634 -44.316135 1.179328 -2.895397 64.415983 -85.939911 41.0037 -159.451106 -20.565665 -149.719449 -143.037547 -32.681274 -58.803891 3.208181 -16.328146 -2.030099 -9.132809 0.584926 6.805605 -119.027732 3.771724 107.933608 -33.62779 34.623873 39.001272 -168.652515 -27.017482 125.090259 -158.446232 -8.262631 139.081607 -2.506052 13.803014 12.592308 -139.000571 20.477805 159.043597 -163.31793 -5.540509 152.416883 -5.289105 78.085708 54.890676 -150.442497 66.780608 -138.479355 7.169384 35.915846 -5.90011 -70.322694 -1.582309 -54.578845 -70.76072 27.902668 -63.6202 52.741102 62.212259 -33.984439 171.645763 9.680609 -88.073221 79.810776 -68.353009 27.941386 -91.525756 -71.045829 -36.881342 163.948801 -14.093704 -81.224512 28.990856 53.336654 -29.354885 -20.164098 57.538158 27.410209 -8.506458 -6.941969 -0.146983 164.725069 -21.092087 178.089199 7.202579 -41.673202 24.67752 6.954864 38.822428 -55.256811 161.342041 71.942764 -0.0 168.436458 21.677229 -151.016827 -47.582681 -55.971347 102.222589 106.538937 -5.887012 -5.521172 25.418857 8.045803 13.035979 22.753728 -45.246356 16.907842 -53.173236 82.224446 155.051427 -169.391765 38.912554 74.579456
-2.2154 56.908899999999996 -0.3311 -4.80877 -23.683502 5.390249 1.045558 17.303799 5.789137 1.916364 -11.829462 -17.217723 2.470519 32.342184 163.606783 -7.061035 40.233674 150.358374 27.408236 -8.98348 -35.712868 -33.927965 1.842295 -6.034386 11.869193 -44.414552 -0.125938 44.156896 36.824513 -27.122247 -91.086104 -26.713081 64.140098 48.455155 -70.767195 31.658382 -175.876953 -23.021473 89.526893 14.406724 -42.286881 11.086851 0.233141 16.799357 14.521289 10.129316 -0.378052 -2.526615 -6.100635 32.06263 12.15272 -6.653428 -27.256599 -19.090895 -63.865994 -79.702883 -83.208829 -135.167342 -57.568494 -152.017601 -10.673914 -43.151414 -16.763186 21.295159 52.824659 -35.259115 1.738448 20.247511 0.388974 100.72015 -5.360145 -137.503333 172.124438 -30.436354 87.979479 9.80543 8.790078 -2.857247 11.802282 -6.823715 4.201248 -17.510501 32.235124 -11.839622 23.238483 31.88172 -17.680041 176.983495 -30.037157 -124.478455 149.01792 -13.006008 -146.53757 124.61724 -7.678507 -114.792651 -21.648901 2.442139 -19.475379 11.39309 4.328774 26.136736 -14.35301 -26.974898 10.340019 56.220596 49.65616 -82.682495 76.584317 56.098806 46.503617 -141.312937 18.431631 -13.369503 52.500694 54.793523 27.308595 -150.267699 -49.775618 119.63408 27.726048 10.406856 14.436685 17.971716 -50.711788 149.804605 84.592628 -39.021215 -6.76734 -55.082777 48.958724 -48.26636
-2.5746 56.2045 0.1159 -5.108673 -22.77155 6.497452 0.589268 10.504776 170.177687 -5.993015 5.13494 178.943251 3.592691 34.121011 151.506829 -17.758708 40.701094 165.805801 41.795262 -17.518665 -43.953035 -24.300151 0.267591 -1.242855 -140.065526 36.976213 142.408797 -94.545441 46.546908 85.221426 -159.822701 63.020143 -92.153534 -6.461516 7.584087 -4.410706 107.496406 -53.098983 40.772323 -89.959544 14.600617 51.103198 56.313366 -48.964939 11.891992 -158.103735 -12.655946 114.323613 -167.328658 -50.102234 142.706054 -19.668001 36.493434 35.402717 -60.819911 -78.181447 -84.298649 -156.582181 -14.869682 177.964361 -133.960456 -4.919621 -153.827553 88.632426 -75.706365 108.746768 4.30873 -61.434408 23.430061 -79.792187 24.262206 35.19593 126.488354 -47.474131 -88.483277 -164.806499 -47.056975 -141.736082 -6.412142 -26.711538 0.49156 105.435603 -0.619101 -131.858855 158.164565 -23.68736 -132.812059 155.617888 -22.701961 -131.393609 -5.624298 17.361342 -5.45968 -173.618894 -3.056428 173.738514 -82.420887 -81.769335 -48.088241 97.660718 61.478846 -81.960472 -3.287039 -41.721971 20.055318 31.459503 43.142168 -52.6309 154.871607 77.167368 -0.0 173.316201 28.345095 3.06731 22.927305 63.421096 -32.243798 -69.382804 -15.016515 10.897243 -134.539543 65.117317 -25.748537 -159.366245 21.049424 106.265282 80.994625 -19.380003 -46.063156 142.182695 -41.812133 26.493707
